<svg xmlns="http://www.w3.org/2000/svg" width="690" height="690" viewBox="0 0 690 690" version="1.1"><path d="M 215.537 181.662 C 209.445 183.531, 208.350 184.290, 203.284 190.159 C 194.070 200.833, 189.082 220.257, 188.277 248.594 C 187.931 260.765, 188.122 267.359, 188.860 268.739 C 189.728 270.360, 189.615 271.074, 188.320 272.145 C 187.420 272.890, 183.827 277.100, 180.337 281.500 C 176.847 285.900, 173.554 290.032, 173.019 290.683 C 168.243 296.492, 155.026 320.114, 151.299 329.500 C 146.508 341.566, 142.647 355.264, 140.435 368.038 C 139.140 375.515, 138.894 381.906, 139.263 398.500 C 139.715 418.822, 139.843 419.888, 143.206 431.509 C 146.874 444.185, 154.103 460.012, 159.047 466.191 C 160.671 468.222, 162.003 470.247, 162.006 470.691 C 162.019 472.254, 176.634 486.803, 183.135 491.723 C 201.061 505.292, 229.068 515.956, 258.938 520.588 C 287.945 525.086, 289.675 525.218, 326 525.699 C 362.188 526.178, 379.855 525.281, 399.250 521.979 C 402.413 521.440, 407.813 520.515, 411.250 519.922 C 464.492 510.735, 498.852 488.246, 515.982 451.372 C 524.446 433.153, 527.963 416.416, 527.984 394.257 C 527.997 380.838, 527.551 375.713, 525.421 364.784 C 520.581 339.965, 511.384 317.445, 497.742 297.011 C 491.173 287.172, 488.967 284.341, 480.369 274.707 C 477.566 271.567, 477.114 270.449, 477.742 268.207 C 478.892 264.099, 478.449 238.548, 477.069 229.500 C 473.895 208.679, 468.838 195.970, 460.646 188.233 C 456.294 184.123, 454.502 183.161, 449.032 182.003 C 443.365 180.804, 441.592 180.835, 434.709 182.259 C 419.381 185.428, 399.430 197.582, 383.500 213.455 C 378 218.935, 373.227 223.346, 372.893 223.257 C 368.036 221.963, 343.856 220, 332.773 220 C 319.833 220, 297.261 222.102, 294.965 223.522 C 294.474 223.825, 289.668 219.626, 284.286 214.189 C 267.934 197.672, 249.798 186.034, 234.211 182.054 C 224.820 179.656, 222.250 179.602, 215.537 181.662 M 217 188.713 C 216.175 189.018, 213.641 190.769, 211.369 192.603 C 201.777 200.348, 196.091 220.560, 194.386 252.971 L 193.678 266.441 196.420 264.645 C 199.324 262.742, 202 263.045, 202 265.276 C 202 266.013, 199.536 269.515, 196.523 273.058 C 177.374 295.583, 171.024 304.623, 163.195 320.500 C 155.568 335.969, 151.019 349.321, 147.351 367 C 144.619 380.165, 144.890 410.421, 147.847 422.500 C 154.762 450.745, 167.276 471.017, 187.368 486.516 C 200.245 496.451, 221.615 505.617, 244.665 511.094 C 255.929 513.771, 287.916 518.657, 303 520.005 C 323.436 521.832, 362.924 520.635, 384.500 517.536 C 422.447 512.084, 442.985 506.630, 462.500 496.820 C 488.673 483.664, 506.769 461.912, 515.858 432.684 C 520.381 418.138, 521.340 409.460, 520.724 388.646 C 520.256 372.845, 519.795 368.949, 517.154 358.500 C 512.844 341.449, 508.542 330.046, 501.121 316 C 493.060 300.744, 478.786 281.481, 471.704 276.303 C 465.378 271.676, 463.938 267.470, 468.931 268.203 C 472.877 268.782, 473.035 267.839, 471.972 250.074 C 470.061 218.138, 463.168 197.329, 452.500 191.295 C 439.101 183.716, 414.283 194.624, 386.873 220.138 L 380.816 225.776 387.418 227.973 C 394.470 230.320, 397.099 232.970, 394.947 235.564 C 393.226 237.637, 390.565 237.351, 380.982 234.061 C 367.888 229.566, 352.597 227.619, 330.500 227.634 C 308.301 227.649, 297.531 229.214, 280.006 234.973 C 267.781 238.990, 265.313 239.153, 267.094 235.825 C 268.114 233.919, 281.134 227, 283.700 227 C 286.278 227, 282.735 222.461, 274.331 215 C 263.931 205.766, 260.655 203.355, 250.500 197.467 C 238.817 190.692, 230.927 188.006, 223 188.103 C 220.525 188.133, 217.825 188.408, 217 188.713 M 277.374 354.843 C 269.852 361.129, 270.670 373.192, 278.906 377.451 C 284.818 380.509, 293.170 378.369, 296.352 372.981 C 299.719 367.282, 297.829 358.084, 292.586 354.648 C 289.123 352.379, 280.186 352.493, 277.374 354.843 M 371.763 354.565 C 363.729 358.924, 364.240 373.360, 372.568 377.331 C 387.149 384.284, 399.239 365.878, 387.048 355.286 C 383.985 352.624, 376.031 352.250, 371.763 354.565 M 327.329 367.419 C 321.436 370.055, 320.277 375.975, 324.805 380.313 C 326.347 381.791, 328.183 383, 328.884 383 C 330.796 383, 329.273 388.845, 326.346 392.742 C 325.006 394.525, 322.724 396.282, 321.274 396.646 C 317.773 397.525, 313.596 395.118, 313.154 391.967 C 312.236 385.419, 307 386.285, 307 392.984 C 307 396.105, 307.659 397.520, 310.250 399.963 C 312.111 401.717, 315.065 403.283, 317.160 403.627 C 320.288 404.140, 320.906 404.682, 321.410 407.363 C 322.323 412.218, 327.367 422.146, 330.751 425.750 C 333.310 428.475, 334.523 429, 338.265 429 C 342.300 429, 342.974 428.640, 345.290 425.250 C 347.760 421.635, 350.192 414.380, 351.428 406.938 C 351.920 403.979, 352.691 403.080, 355.986 401.626 C 361.025 399.403, 364 395.633, 364 391.472 C 364 385.231, 359.667 386.305, 355.391 393.606 C 354.537 395.062, 353.203 395.478, 349.614 395.403 C 343.951 395.286, 338.031 391.059, 336.782 386.240 C 336.112 383.653, 336.399 382.672, 338.488 380.418 C 345.167 373.211, 336.625 363.260, 327.329 367.419 M 477.562 389.088 C 469.585 391.259, 468.707 391.892, 469.165 395.135 C 469.631 398.424, 472.972 398.580, 481.436 395.710 C 489.047 393.129, 491.185 391.133, 489.070 388.584 C 487.462 386.646, 486.350 386.695, 477.562 389.088 M 171.410 390.373 C 170.285 393.306, 171.758 394.735, 178.118 396.882 C 184.918 399.179, 190.499 399.620, 191.535 397.943 C 191.894 397.362, 191.926 395.842, 191.606 394.565 C 190.978 392.063, 187.292 390.744, 177.267 389.432 C 172.943 388.866, 171.926 389.029, 171.410 390.373 M 329.999 399.501 L 326.606 403.002 328.454 408.251 C 330.868 415.106, 334.672 421.660, 336.686 422.433 C 340.250 423.800, 342.668 418.855, 344.511 406.428 C 345.103 402.438, 345.033 402.319, 341.052 400.523 C 338.817 399.516, 336.486 398.086, 335.872 397.346 C 334.273 395.419, 333.781 395.599, 329.999 399.501 M 471.750 409.067 C 469.299 410.513, 469.571 413.673, 472.300 415.461 C 475.484 417.547, 488.818 417.899, 490.065 415.930 C 490.562 415.143, 490.976 414.195, 490.985 413.821 C 491.025 412.044, 487.644 410.179, 483.300 409.583 C 480.660 409.221, 477.375 408.724, 476 408.480 C 474.625 408.235, 472.712 408.500, 471.750 409.067 M 176.008 411.346 C 170.166 412.573, 168.601 414.610, 171.146 417.675 C 172.216 418.965, 173.800 419.141, 179.778 418.636 C 188.012 417.940, 191 416.749, 191 414.165 C 191 409.927, 186.656 409.110, 176.008 411.346" stroke="none" fill="#120d0b" fill-rule="evenodd"/><path d="M 0 345.001 L 0 690.003 345.250 689.751 L 690.500 689.500 690.751 344.750 L 691.003 0 345.501 0 L 0 0 0 345.001 M 0.494 345.500 C 0.494 535.250, 0.609 613.024, 0.750 518.331 C 0.891 423.638, 0.891 268.388, 0.750 173.331 C 0.609 78.274, 0.494 155.750, 0.494 345.500 M 215.537 181.662 C 209.445 183.531, 208.350 184.290, 203.284 190.159 C 194.070 200.833, 189.082 220.257, 188.277 248.594 C 187.931 260.765, 188.122 267.359, 188.860 268.739 C 189.728 270.360, 189.615 271.074, 188.320 272.145 C 187.420 272.890, 183.827 277.100, 180.337 281.500 C 176.847 285.900, 173.554 290.032, 173.019 290.683 C 168.243 296.492, 155.026 320.114, 151.299 329.500 C 146.508 341.566, 142.647 355.264, 140.435 368.038 C 139.140 375.515, 138.894 381.906, 139.263 398.500 C 139.715 418.822, 139.843 419.888, 143.206 431.509 C 146.874 444.185, 154.103 460.012, 159.047 466.191 C 160.671 468.222, 162.003 470.247, 162.006 470.691 C 162.019 472.254, 176.634 486.803, 183.135 491.723 C 201.061 505.292, 229.068 515.956, 258.938 520.588 C 287.945 525.086, 289.675 525.218, 326 525.699 C 362.188 526.178, 379.855 525.281, 399.250 521.979 C 402.413 521.440, 407.813 520.515, 411.250 519.922 C 464.492 510.735, 498.852 488.246, 515.982 451.372 C 524.446 433.153, 527.963 416.416, 527.984 394.257 C 527.997 380.838, 527.551 375.713, 525.421 364.784 C 520.581 339.965, 511.384 317.445, 497.742 297.011 C 491.173 287.172, 488.967 284.341, 480.369 274.707 C 477.566 271.567, 477.114 270.449, 477.742 268.207 C 478.892 264.099, 478.449 238.548, 477.069 229.500 C 473.895 208.679, 468.838 195.970, 460.646 188.233 C 456.294 184.123, 454.502 183.161, 449.032 182.003 C 443.365 180.804, 441.592 180.835, 434.709 182.259 C 419.381 185.428, 399.430 197.582, 383.500 213.455 C 378 218.935, 373.227 223.346, 372.893 223.257 C 368.036 221.963, 343.856 220, 332.773 220 C 319.833 220, 297.261 222.102, 294.965 223.522 C 294.474 223.825, 289.668 219.626, 284.286 214.189 C 267.934 197.672, 249.798 186.034, 234.211 182.054 C 224.820 179.656, 222.250 179.602, 215.537 181.662 M 217 188.713 C 216.175 189.018, 213.641 190.769, 211.369 192.603 C 201.777 200.348, 196.091 220.560, 194.386 252.971 L 193.678 266.441 196.420 264.645 C 199.324 262.742, 202 263.045, 202 265.276 C 202 266.013, 199.536 269.515, 196.523 273.058 C 177.374 295.583, 171.024 304.623, 163.195 320.500 C 155.568 335.969, 151.019 349.321, 147.351 367 C 144.619 380.165, 144.890 410.421, 147.847 422.500 C 154.762 450.745, 167.276 471.017, 187.368 486.516 C 200.245 496.451, 221.615 505.617, 244.665 511.094 C 255.929 513.771, 287.916 518.657, 303 520.005 C 323.436 521.832, 362.924 520.635, 384.500 517.536 C 422.447 512.084, 442.985 506.630, 462.500 496.820 C 488.673 483.664, 506.769 461.912, 515.858 432.684 C 520.381 418.138, 521.340 409.460, 520.724 388.646 C 520.256 372.845, 519.795 368.949, 517.154 358.500 C 512.844 341.449, 508.542 330.046, 501.121 316 C 493.060 300.744, 478.786 281.481, 471.704 276.303 C 465.378 271.676, 463.938 267.470, 468.931 268.203 C 472.877 268.782, 473.035 267.839, 471.972 250.074 C 470.061 218.138, 463.168 197.329, 452.500 191.295 C 439.101 183.716, 414.283 194.624, 386.873 220.138 L 380.816 225.776 387.418 227.973 C 394.470 230.320, 397.099 232.970, 394.947 235.564 C 393.226 237.637, 390.565 237.351, 380.982 234.061 C 367.888 229.566, 352.597 227.619, 330.500 227.634 C 308.301 227.649, 297.531 229.214, 280.006 234.973 C 267.781 238.990, 265.313 239.153, 267.094 235.825 C 268.114 233.919, 281.134 227, 283.700 227 C 286.278 227, 282.735 222.461, 274.331 215 C 263.931 205.766, 260.655 203.355, 250.500 197.467 C 238.817 190.692, 230.927 188.006, 223 188.103 C 220.525 188.133, 217.825 188.408, 217 188.713 M 277.374 354.843 C 269.852 361.129, 270.670 373.192, 278.906 377.451 C 284.818 380.509, 293.170 378.369, 296.352 372.981 C 299.719 367.282, 297.829 358.084, 292.586 354.648 C 289.123 352.379, 280.186 352.493, 277.374 354.843 M 371.763 354.565 C 363.729 358.924, 364.240 373.360, 372.568 377.331 C 387.149 384.284, 399.239 365.878, 387.048 355.286 C 383.985 352.624, 376.031 352.250, 371.763 354.565 M 327.329 367.419 C 321.436 370.055, 320.277 375.975, 324.805 380.313 C 326.347 381.791, 328.183 383, 328.884 383 C 330.796 383, 329.273 388.845, 326.346 392.742 C 325.006 394.525, 322.724 396.282, 321.274 396.646 C 317.773 397.525, 313.596 395.118, 313.154 391.967 C 312.236 385.419, 307 386.285, 307 392.984 C 307 396.105, 307.659 397.520, 310.250 399.963 C 312.111 401.717, 315.065 403.283, 317.160 403.627 C 320.288 404.140, 320.906 404.682, 321.410 407.363 C 322.323 412.218, 327.367 422.146, 330.751 425.750 C 333.310 428.475, 334.523 429, 338.265 429 C 342.300 429, 342.974 428.640, 345.290 425.250 C 347.760 421.635, 350.192 414.380, 351.428 406.938 C 351.920 403.979, 352.691 403.080, 355.986 401.626 C 361.025 399.403, 364 395.633, 364 391.472 C 364 385.231, 359.667 386.305, 355.391 393.606 C 354.537 395.062, 353.203 395.478, 349.614 395.403 C 343.951 395.286, 338.031 391.059, 336.782 386.240 C 336.112 383.653, 336.399 382.672, 338.488 380.418 C 345.167 373.211, 336.625 363.260, 327.329 367.419 M 477.562 389.088 C 469.585 391.259, 468.707 391.892, 469.165 395.135 C 469.631 398.424, 472.972 398.580, 481.436 395.710 C 489.047 393.129, 491.185 391.133, 489.070 388.584 C 487.462 386.646, 486.350 386.695, 477.562 389.088 M 171.410 390.373 C 170.285 393.306, 171.758 394.735, 178.118 396.882 C 184.918 399.179, 190.499 399.620, 191.535 397.943 C 191.894 397.362, 191.926 395.842, 191.606 394.565 C 190.978 392.063, 187.292 390.744, 177.267 389.432 C 172.943 388.866, 171.926 389.029, 171.410 390.373 M 329.999 399.501 L 326.606 403.002 328.454 408.251 C 330.868 415.106, 334.672 421.660, 336.686 422.433 C 340.250 423.800, 342.668 418.855, 344.511 406.428 C 345.103 402.438, 345.033 402.319, 341.052 400.523 C 338.817 399.516, 336.486 398.086, 335.872 397.346 C 334.273 395.419, 333.781 395.599, 329.999 399.501 M 471.750 409.067 C 469.299 410.513, 469.571 413.673, 472.300 415.461 C 475.484 417.547, 488.818 417.899, 490.065 415.930 C 490.562 415.143, 490.976 414.195, 490.985 413.821 C 491.025 412.044, 487.644 410.179, 483.300 409.583 C 480.660 409.221, 477.375 408.724, 476 408.480 C 474.625 408.235, 472.712 408.500, 471.750 409.067 M 176.008 411.346 C 170.166 412.573, 168.601 414.610, 171.146 417.675 C 172.216 418.965, 173.800 419.141, 179.778 418.636 C 188.012 417.940, 191 416.749, 191 414.165 C 191 409.927, 186.656 409.110, 176.008 411.346" stroke="none" fill="#fbcc75" fill-rule="evenodd"/></svg>